<svg id="Слой_1" data-name="Слой 1" xmlns="http://www.w3.org/2000/svg" viewBox="0 0 242.38 287.63"><defs><style>.cls-1{fill:#fff;}</style></defs><path class="cls-1" d="M242.37,68.1a19.75,19.75,0,0,1-8.05,1.61c-14,0-20.17-12.14-18.52-22.85-9.07,1.72-21,2.18-36.59-.45C144.05,40.47,121.81.78,121.19,0c-.62.78-22.85,40.47-58,46.41-15.59,2.63-27.53,2.17-36.6.45,1.65,10.71-4.52,22.85-18.52,22.85A19.75,19.75,0,0,1,0,68.1c-.49,52.61,13.48,156.57,121.18,219.53C228.89,224.67,242.86,120.71,242.37,68.1ZM46.93,184.36c11.33-3.77,15.1-7.55,18.88-18.88,3.77,11.33,7.55,15.11,18.88,18.88Zm65.66,0c11.58-2.52,17.24-7.43,11.08-18.88h-.09l-2.9-5.17c-7.36-5.84-17.12-8.44-35.37-10.58,11.77-1.39,20-2.95,26.36-5.45l-27-48h20.48l38.89,69.23c6.93,11.33,11.71,16.36,21.4,18.88Zm42.46-23.18c11.81-5.77,21.52-16.85,21.52-32.46v-.23a29.38,29.38,0,0,0-19-27c-7.6-2.87-29.42-5.27-29.42-5.27h23.56l4.46,0c17.58.32,39.28,9.38,39.28,32.41C195.48,152.25,172.81,161.18,155.05,161.18Z"/></svg>